<?xml version="1.0" encoding="UTF-8" standalone="no"?>
<!-- Created with Inkscape (http://www.inkscape.org/) -->
<svg
   xmlns:dc="http://purl.org/dc/elements/1.1/"
   xmlns:cc="http://web.resource.org/cc/"
   xmlns:rdf="http://www.w3.org/1999/02/22-rdf-syntax-ns#"
   xmlns:svg="http://www.w3.org/2000/svg"
   xmlns="http://www.w3.org/2000/svg"
   xmlns:sodipodi="http://sodipodi.sourceforge.net/DTD/sodipodi-0.dtd"
   xmlns:inkscape="http://www.inkscape.org/namespaces/inkscape"
   width="253.08881"
   height="253.00053"
   id="svg2"
   sodipodi:version="0.32"
   inkscape:version="0.44.1"
   sodipodi:docbase="D:\"
   sodipodi:docname="MIREA_Logo2.svg"
   version="1.0">
  <defs
     id="defs4" />
  <sodipodi:namedview
     id="base"
     pagecolor="#ffffff"
     bordercolor="#666666"
     borderopacity="1.0"
     gridtolerance="10000"
     guidetolerance="10"
     objecttolerance="10"
     inkscape:pageopacity="0.0"
     inkscape:pageshadow="2"
     inkscape:zoom="0.7"
     inkscape:cx="361.79097"
     inkscape:cy="148.81573"
     inkscape:document-units="px"
     inkscape:current-layer="layer1"
     inkscape:window-width="1280"
     inkscape:window-height="744"
     inkscape:window-x="-4"
     inkscape:window-y="-4" />
  <metadata
     id="metadata7">
    <rdf:RDF>
      <cc:Work
         rdf:about="">
        <dc:format>image/svg+xml</dc:format>
        <dc:type
           rdf:resource="http://purl.org/dc/dcmitype/StillImage" />
      </cc:Work>
    </rdf:RDF>
  </metadata>
  <g
     inkscape:label="Layer 1"
     inkscape:groupmode="layer"
     id="layer1"
     transform="translate(-2.081394,-1.430034)">
    <g
       style="overflow:visible"
       id="g1902"
       transform="matrix(2.596555,0,0,2.596555,2.081394,1.430034)">
      <g
         id="Rounds">
	<path
   id="path1874"
   d="M 17.717,51.078 C 18.347,50.403 18.68,49.628 18.68,48.699 C 18.68,47.771 18.347,46.993 17.717,46.358 C 17.049,45.693 16.269,45.359 15.342,45.359 C 14.412,45.359 13.633,45.693 12.967,46.358 C 12.337,46.993 12,47.771 12,48.699 C 12,49.628 12.337,50.403 12.967,51.078 C 13.633,51.705 14.411,52.04 15.342,52.04 C 16.269,52.04 17.049,51.705 17.717,51.078 z "
   style="fill:#0071bc;stroke:#0071bc" />

	<path
   id="path1876"
   d="M 21.28,32.372 C 16.789,32.372 12.929,33.969 9.776,37.158 C 6.548,40.35 4.953,44.21 4.953,48.699 C 4.953,53.223 6.548,57.088 9.776,60.24 C 12.929,63.431 16.789,65.024 21.28,65.024 C 25.806,65.024 29.665,63.431 32.855,60.24 C 36.008,57.088 37.603,53.223 37.603,48.699 C 37.603,44.21 36.008,40.35 32.855,37.158 C 29.665,33.968 25.807,32.372 21.28,32.372"
   style="fill:none;stroke:#0071bc" />

	<path
   id="path1878"
   d="M 30.555,20.911 C 22.875,20.87 16.345,23.616 10.928,29.034 C 5.473,34.491 2.726,41.02 2.726,48.738 C 2.726,56.413 5.473,62.982 10.928,68.402 C 16.345,73.817 22.875,76.524 30.555,76.524 C 38.272,76.524 44.802,73.817 50.258,68.402 C 55.675,62.982 58.383,56.413 58.383,48.738 C 58.383,41.02 55.675,34.491 50.258,29.034 C 44.802,23.616 38.272,20.87 30.555,20.911"
   style="fill:none;stroke:#0071bc" />

	<path
   id="path1880"
   d="M 48.735,0.5 C 35.451,0.5 24.06,5.212 14.673,14.598 C 5.248,24.024 0.537,35.375 0.5,48.699 C 0.537,62.055 5.248,73.409 14.673,82.835 C 24.06,92.225 35.451,96.937 48.735,96.937 C 62.094,96.937 73.447,92.225 82.871,82.835 C 92.296,73.409 96.971,62.056 96.971,48.699 C 96.971,35.376 92.296,24.024 82.871,14.598 C 73.448,5.212 62.095,0.5 48.735,0.5"
   style="fill:none;stroke:#0071bc" />

	<path
   id="path1882"
   d="M 15.343,40.54 C 13.117,40.54 11.187,41.349 9.59,42.908 C 7.996,44.507 7.179,46.432 7.179,48.699 C 7.179,50.957 7.996,52.891 9.59,54.486 C 11.187,56.085 13.117,56.861 15.343,56.861 C 17.606,56.861 19.535,56.085 21.13,54.486 C 22.725,52.891 23.506,50.957 23.506,48.699 C 23.506,46.432 22.724,44.507 21.13,42.908 C 19.535,41.348 17.606,40.54 15.343,40.54"
   style="fill:none;stroke:#0071bc" />

</g>
      <g
         id="Text">
	<g
   id="g1885">
		<path
   id="path1887"
   d="M 82.389,60.054 L 79.421,60.054 L 74.042,73.854 L 77.01,73.854 L 78.16,70.704 L 83.65,70.704 L 84.875,73.854 L 87.919,73.854 L 82.389,60.054 z M 80.868,63.246 L 82.76,68.402 L 79.013,68.402 L 80.868,63.246 z "
   style="fill:#0071bc" />

		<path
   id="path1889"
   d="M 44.172,60.054 L 41.388,60.054 L 35.785,69.218 L 35.785,60.054 L 33.187,60.054 L 33.187,73.854 L 35.97,73.854 L 41.534,64.84 L 41.534,73.854 L 44.17,73.854 L 44.17,60.054 L 44.172,60.054 z "
   style="fill:#0071bc" />

		<path
   id="path1891"
   d="M 57.418,61.612 C 56.86,60.907 56.23,60.461 55.416,60.24 C 54.896,60.131 53.781,60.054 52.111,60.054 L 47.624,60.054 L 47.624,73.854 L 50.405,73.854 L 50.405,68.625 L 52.224,68.625 C 53.485,68.625 54.451,68.588 55.117,68.439 C 55.599,68.33 56.083,68.106 56.564,67.809 C 57.046,67.469 57.418,66.991 57.751,66.437 C 58.049,65.839 58.199,65.137 58.199,64.282 C 58.199,63.207 57.938,62.278 57.418,61.612 z M 50.405,62.392 L 51.778,62.392 C 52.742,62.392 53.447,62.427 53.781,62.462 C 54.227,62.536 54.597,62.759 54.896,63.097 C 55.156,63.392 55.34,63.838 55.34,64.317 C 55.34,64.729 55.229,65.1 55.006,65.398 C 54.783,65.728 54.524,65.949 54.154,66.064 C 53.781,66.212 53.04,66.287 51.928,66.287 L 50.406,66.287 L 50.406,62.392 L 50.405,62.392 z "
   style="fill:#0071bc" />

		<path
   id="path1893"
   d="M 70.923,61.795 C 69.776,60.46 68.217,59.792 66.212,59.792 C 64.652,59.792 63.39,60.167 62.427,60.906 C 61.463,61.65 60.832,62.612 60.573,63.838 L 63.318,64.467 C 63.541,63.801 63.91,63.245 64.393,62.833 C 64.913,62.427 65.543,62.205 66.286,62.205 C 67.253,62.205 68.068,62.536 68.624,63.245 C 69.218,63.912 69.552,64.766 69.663,65.802 L 65.323,65.802 L 65.323,68.106 L 69.663,68.106 C 69.479,69.367 69.106,70.294 68.55,70.85 C 67.957,71.445 67.254,71.704 66.436,71.704 C 65.655,71.704 64.991,71.479 64.394,70.998 C 63.839,70.514 63.47,69.773 63.319,68.77 L 60.536,69.663 C 61.241,72.631 63.207,74.113 66.361,74.113 C 67.623,74.113 68.739,73.783 69.663,73.226 C 70.553,72.63 71.296,71.811 71.816,70.777 C 72.334,69.736 72.596,68.471 72.596,67.025 C 72.595,64.877 72.038,63.136 70.923,61.795 z "
   style="fill:#0071bc" />

		<polygon
   id="polygon1895"
   points="9.049,73.854 12.048,73.854 15.373,56.444 18.912,73.854 22.253,73.854 24.94,65.225 27.121,73.854 30.167,73.854 26.659,60.054 23.425,60.054 20.83,68.468 16.842,48.699 13.843,48.699 9.049,73.854 "
   style="fill:#0071bc" />

	</g>

</g>
    </g>
  </g>
</svg>
